<svg width="32" height="32" viewBox="0 0 32 32" fill="none" xmlns="http://www.w3.org/2000/svg">
<g clip-path="url(#clip0_2607_594)">
<path fill-rule="evenodd" clip-rule="evenodd" d="M15.9523 0.5C7.1311 0.5 0 7.60417 0 16.393C0 23.4184 4.56914 29.3652 10.9078 31.47C11.7002 31.6282 11.9905 31.128 11.9905 30.7072C11.9905 30.3388 11.9644 29.0759 11.9644 27.76C7.52686 28.7074 6.60278 25.8654 6.60278 25.8654C5.88963 24.0235 4.83298 23.5501 4.83298 23.5501C3.38057 22.5765 4.93878 22.5765 4.93878 22.5765C6.54988 22.6818 7.39527 24.2079 7.39527 24.2079C8.82123 26.6285 11.119 25.9445 12.0434 25.5235C12.1753 24.4972 12.5982 23.7868 13.0472 23.3922C9.50792 23.0238 5.78416 21.6556 5.78416 15.5508C5.78416 13.8142 6.41763 12.3933 7.42139 11.2883C7.26302 10.8937 6.70825 9.26202 7.58008 7.07814C7.58008 7.07814 8.92702 6.65705 11.9641 8.70951C13.2644 8.36162 14.6053 8.18465 15.9523 8.18316C17.2993 8.18316 18.6723 8.36754 19.9402 8.70951C22.9776 6.65705 24.3246 7.07814 24.3246 7.07814C25.1964 9.26202 24.6413 10.8937 24.4829 11.2883C25.5131 12.3933 26.1205 13.8142 26.1205 15.5508C26.1205 21.6556 22.3967 22.9973 18.831 23.3922C19.4122 23.8921 19.9138 24.8392 19.9138 26.3391C19.9138 28.4704 19.8877 30.1809 19.8877 30.7069C19.8877 31.128 20.1783 31.6282 20.9705 31.4703C27.3091 29.3649 31.8782 23.4184 31.8782 16.393C31.9043 7.60417 24.7471 0.5 15.9523 0.5Z" fill="#24292F"/>
</g>
<defs>
<clipPath id="clip0_2607_594">
<rect width="32" height="31" fill="white" transform="translate(0 0.5)"/>
</clipPath>
</defs>
</svg>
