<svg width="32" height="32" viewBox="0 0 32 32" fill="none" xmlns="http://www.w3.org/2000/svg">
<path d="M26.9135 26.9141H22.3202V19.7207C22.3202 18.0053 22.2896 15.7971 19.9313 15.7971C17.539 15.7971 17.173 17.6661 17.173 19.5958V26.9136H12.5797V12.121H16.9892V14.1426H17.0509C17.4922 13.388 18.1299 12.7673 18.896 12.3465C19.6622 11.9257 20.5281 11.7206 21.4016 11.753C26.057 11.753 26.9154 14.8153 26.9154 18.7991L26.9135 26.9141ZM7.39702 10.0989C6.86983 10.099 6.35444 9.9428 5.91605 9.64997C5.47765 9.35715 5.13596 8.9409 4.93412 8.45386C4.73229 7.96683 4.6794 7.43087 4.78215 6.91378C4.88491 6.39669 5.1387 5.92168 5.51141 5.54882C5.88412 5.17596 6.35903 4.922 6.87607 4.81905C7.39311 4.71611 7.92905 4.7688 8.41614 4.97047C8.90324 5.17213 9.31959 5.51371 9.61256 5.95201C9.90553 6.39032 10.062 6.90566 10.0621 7.43286C10.0621 7.78292 9.99322 8.12955 9.85933 8.45298C9.72543 8.77641 9.52916 9.0703 9.28169 9.31787C9.03422 9.56544 8.74039 9.76183 8.41702 9.89585C8.09365 10.0299 7.74706 10.0989 7.39702 10.0989ZM9.69363 26.9141H5.09562V12.121H9.69363V26.9141ZM29.2034 0.502112H2.78753C2.18796 0.495346 1.61021 0.726899 1.18128 1.14589C0.752343 1.56488 0.507317 2.13702 0.5 2.7366V29.2629C0.507067 29.8628 0.751949 30.4354 1.18087 30.8548C1.60979 31.2742 2.18767 31.5062 2.78753 31.4998H29.2034C29.8044 31.5074 30.3839 31.276 30.8145 30.8566C31.2452 30.4372 31.4917 29.864 31.5 29.2629V2.73469C31.4914 2.13392 31.2447 1.56112 30.8141 1.14214C30.3835 0.723165 29.8041 0.492274 29.2034 0.500197" fill="#0A66C2"/>
</svg>
